<?xml version="1.0" standalone="no"?>
<!DOCTYPE svg PUBLIC "-//W3C//DTD SVG 20010904//EN"
 "http://www.w3.org/TR/2001/REC-SVG-20010904/DTD/svg10.dtd">
<svg version="1.0" xmlns="http://www.w3.org/2000/svg"
 width="700.000000pt" height="700.000000pt" viewBox="0 0 700.000000 700.000000"
 preserveAspectRatio="xMidYMid meet">
<metadata>
Created by potrace 1.14, written by Peter Selinger 2001-2017
</metadata>
<g transform="translate(0.000000,700.000000) scale(0.100000,-0.100000)"
fill="#000000" stroke="none">
<path d="M1870 6108 c0 -7 84 -367 186 -800 l187 -788 238 0 c218 0 238 1 243
18 2 9 66 278 141 597 75 319 138 581 140 583 1 2 21 -73 43 -165 22 -92 86
-363 143 -600 l103 -433 237 0 c218 0 238 1 243 18 14 48 366 1553 366 1566 0
14 -24 16 -189 16 -105 0 -192 -3 -194 -7 -3 -5 -65 -260 -138 -568 -73 -308
-135 -563 -138 -567 -3 -4 -66 248 -140 560 -73 312 -135 570 -138 575 -2 4
-91 7 -198 7 l-194 0 -10 -37 c-6 -21 -67 -279 -136 -573 -108 -458 -135 -566
-135 -538 0 15 -262 1107 -270 1126 -9 22 -12 22 -200 22 -145 0 -190 -3 -190
-12z"/>
<path d="M4420 5320 l0 -800 205 0 205 0 -2 798 -3 797 -202 3 -203 2 0 -800z"/>
<path d="M407 4660 c-48 -9 -94 -53 -108 -102 -6 -24 -9 -206 -7 -495 3 -428
4 -460 22 -489 24 -40 66 -65 125 -73 l47 -6 -173 -1605 c-96 -891 -171 -1628
-169 -1656 5 -65 34 -120 85 -167 81 -73 -204 -67 3271 -67 3475 0 3190 -6
3271 67 51 47 80 102 85 167 2 28 -73 765 -169 1656 l-173 1605 47 6 c64 9
106 36 130 85 19 40 20 58 17 512 -3 457 -4 471 -24 498 -11 15 -33 37 -48 48
-26 20 -43 21 -342 24 l-314 4 0 -296 0 -296 -950 0 -950 0 0 -94 c0 -80 -3
-98 -23 -127 -46 -70 -39 -69 -557 -69 -518 0 -511 -1 -557 69 -20 29 -23 47
-23 127 l0 94 -950 0 -950 0 0 295 0 295 -287 -1 c-159 -1 -305 -5 -326 -9z
m1128 -2059 c55 -31 69 -71 68 -197 0 -97 -3 -117 -22 -147 -54 -87 -182 -90
-243 -5 -19 28 -23 48 -26 134 -5 116 5 158 47 198 48 46 112 52 176 17z m584
0 c57 -40 66 -64 69 -184 3 -128 -9 -164 -69 -205 -64 -44 -162 -19 -205 52
-13 23 -17 53 -17 140 0 147 17 182 100 211 44 15 88 10 122 -14z m587 -2 c51
-31 64 -72 64 -196 0 -90 -3 -113 -20 -141 -58 -95 -192 -95 -250 0 -17 28
-20 51 -20 141 0 120 13 163 57 193 58 37 111 38 169 3z m579 2 c55 -31 69
-71 68 -197 0 -97 -3 -117 -22 -147 -54 -87 -182 -90 -243 -5 -19 28 -23 48
-26 134 -5 116 5 158 47 198 48 46 112 52 176 17z m584 0 c57 -40 66 -64 69
-184 3 -128 -9 -164 -69 -205 -64 -44 -162 -19 -205 52 -13 23 -17 53 -17 140
0 147 17 182 100 211 44 15 88 10 122 -14z m587 -2 c51 -31 64 -72 64 -196 0
-90 -3 -113 -20 -141 -58 -95 -192 -95 -250 0 -17 28 -20 51 -20 141 0 120 13
163 57 193 58 37 111 38 169 3z m579 2 c55 -31 69 -71 68 -197 0 -97 -3 -117
-22 -147 -54 -87 -182 -90 -243 -5 -19 28 -23 48 -26 134 -5 116 5 158 47 198
48 46 112 52 176 17z m584 0 c57 -40 66 -64 69 -184 3 -128 -9 -164 -69 -205
-64 -44 -162 -19 -205 52 -13 23 -17 53 -17 140 0 147 17 182 100 211 44 15
88 10 122 -14z m-4389 -429 c19 -9 45 -32 57 -51 21 -30 23 -46 23 -151 0
-105 -2 -121 -23 -151 -63 -95 -203 -86 -251 15 -11 25 -16 63 -16 138 0 122
15 160 76 195 47 27 87 29 134 5z m599 -9 c59 -45 66 -65 66 -191 0 -97 -3
-122 -19 -149 -24 -38 -83 -73 -126 -73 -43 0 -103 35 -125 73 -21 35 -32 157
-21 231 17 110 142 171 225 109z m575 4 c61 -35 76 -73 76 -195 0 -75 -5 -113
-16 -138 -48 -101 -188 -110 -251 -15 -21 30 -23 46 -23 151 0 105 2 121 23
151 26 39 79 69 122 69 17 0 48 -10 69 -23z m576 5 c19 -9 45 -32 57 -51 21
-30 23 -46 23 -151 0 -105 -2 -121 -23 -151 -63 -95 -203 -86 -251 15 -11 25
-16 63 -16 138 0 122 15 160 76 195 47 27 87 29 134 5z m599 -9 c59 -45 66
-65 66 -191 0 -97 -3 -122 -19 -149 -24 -38 -83 -73 -126 -73 -43 0 -103 35
-125 73 -21 35 -32 157 -21 231 17 110 142 171 225 109z m575 4 c61 -35 76
-73 76 -195 0 -75 -5 -113 -16 -138 -48 -101 -188 -110 -251 -15 -21 30 -23
46 -23 151 0 105 2 121 23 151 26 39 79 69 122 69 17 0 48 -10 69 -23z m576 5
c19 -9 45 -32 57 -51 21 -30 23 -46 23 -151 0 -105 -2 -121 -23 -151 -63 -95
-203 -86 -251 15 -11 25 -16 63 -16 138 0 122 15 160 76 195 47 27 87 29 134
5z m599 -9 c59 -45 66 -65 66 -191 0 -97 -3 -122 -19 -149 -24 -38 -83 -73
-126 -73 -43 0 -103 35 -125 73 -21 35 -32 157 -21 231 17 110 142 171 225
109z m575 4 c61 -35 76 -73 76 -195 0 -75 -5 -113 -16 -138 -48 -101 -188
-110 -251 -15 -21 30 -23 46 -23 151 0 105 2 121 23 151 26 39 79 69 122 69
17 0 48 -10 69 -23z m-4374 -439 c66 -45 74 -65 73 -192 0 -126 -11 -159 -66
-200 -39 -29 -115 -29 -153 0 -63 46 -69 65 -69 197 0 110 2 125 22 153 45 63
133 82 193 42z m597 -6 c53 -37 65 -79 61 -202 -3 -117 -12 -140 -72 -184 -38
-29 -114 -29 -153 0 -55 41 -66 74 -66 200 -1 127 7 146 74 192 42 29 111 26
156 -6z m571 8 c59 -36 72 -71 72 -195 0 -133 -14 -168 -80 -202 -24 -13 -54
-23 -65 -23 -39 0 -108 44 -127 80 -27 52 -26 242 2 288 42 68 132 92 198 52z
m582 -2 c66 -45 74 -65 73 -192 0 -126 -11 -159 -66 -200 -39 -29 -115 -29
-153 0 -63 46 -69 65 -69 197 0 110 2 125 22 153 45 63 133 82 193 42z m597
-6 c53 -37 65 -79 61 -202 -3 -117 -12 -140 -72 -184 -38 -29 -114 -29 -153 0
-55 41 -66 74 -66 200 -1 127 7 146 74 192 42 29 111 26 156 -6z m571 8 c59
-36 72 -71 72 -195 0 -133 -14 -168 -80 -202 -24 -13 -54 -23 -65 -23 -39 0
-108 44 -127 80 -27 52 -26 242 2 288 42 68 132 92 198 52z m582 -2 c66 -45
74 -65 73 -192 0 -126 -11 -159 -66 -200 -39 -29 -115 -29 -153 0 -63 46 -69
65 -69 197 0 110 2 125 22 153 45 63 133 82 193 42z m597 -6 c53 -37 65 -79
61 -202 -3 -117 -12 -140 -72 -184 -38 -29 -114 -29 -153 0 -55 41 -66 74 -66
200 -1 127 7 146 74 192 42 29 111 26 156 -6z m-590 -578 c51 -39 66 -77 67
-178 2 -106 -8 -152 -37 -184 -51 -55 43 -52 -1570 -52 l-1494 0 -33 23 c-62
41 -71 63 -74 173 -3 111 5 149 36 189 45 57 -43 55 1580 52 l1497 -2 28 -21z"/>
</g>
</svg>
